{
  "source": "C:\\Users\\Peter\\Desktop\\stuff\\MIUN\\quantitative_research\\video_compression\\videos\\UVG\\Beauty_1920x1080_120fps_420_8bit_YUV.y4m",
  "output": "C:\\Users\\Peter\\Desktop\\stuff\\MIUN\\quantitative_research\\video_compression\\compressed_videos\\UVG\\vp9\\2.5\\Beauty_1920x1080_120fps_420_8bit_YUV_vp9.webm",
  "codec": "vp9",
  "ok": "[yuv4mpegpipe @ 0000024ae48252c0] Stream #0: not enough frames to estimate rate; consider increasing probesize\nInput #0, yuv4mpegpipe, from 'C:\\Users\\Peter\\Desktop\\stuff\\MIUN\\quantitative_research\\video_compression\\videos\\UVG\\Beauty_1920x1080_120fps_420_8bit_YUV.y4m':\n  Duration: 00:00:05.00, start: 0.000000, bitrate: 2985989 kb/s\n  Stream #0:0: Video: rawvideo (I420 / 0x30323449), yuv420p(progressive), 1920x1080, 120 fps, 120 tbr, 120 tbn\n[out#0/webm @ 0000024ae4829b80] Codec AVOption b:a (set bitrate (in bits/s)) has not been used for any stream. The most likely reason is either wrong type (e.g. a video option with no video streams) or that it is a private option of some decoder which was not actually used for any stream.\nStream mapping:\n  Stream #0:0 -> #0:0 (rawvideo (native) -> vp9 (libvpx-vp9))\nPress [q] to stop, [?] for help\n[libvpx-vp9 @ 0000024ae482cec0] v1.15.2-100-g40561f514\nOutput #0, webm, to 'C:\\Users\\Peter\\Desktop\\stuff\\MIUN\\quantitative_research\\video_compression\\compressed_videos\\UVG\\vp9\\2.5\\Beauty_1920x1080_120fps_420_8bit_YUV_vp9.webm':\n  Metadata:\n    encoder         : Lavf62.3.100\n  Stream #0:0: Video: vp9, yuv420p(tv, progressive), 1920x1080, q=2-31, 2500 kb/s, 120 fps, 1k tbn\n    Metadata:\n      encoder         : Lavc62.11.100 libvpx-vp9\n    Side data:\n      cpb: bitrate max/min/avg: 0/0/0 buffer size: 2500000 vbv_delay: N/A\nframe=    0 fps=0.0 q=0.0 size=       0KiB time=N/A bitrate=N/A speed=N/A elapsed=0:00:00.51    \nframe=    0 fps=0.0 q=0.0 size=       0KiB time=N/A bitrate=N/A speed=N/A elapsed=0:00:01.08    \nframe=    2 fps=1.2 q=63.0 size=       0KiB time=00:00:00.01 bitrate= 230.9kbits/s speed=0.00978x elapsed=0:00:01.70    \nframe=    5 fps=2.2 q=54.0 size=       0KiB time=00:00:00.04 bitrate=  92.4kbits/s speed=0.0187x elapsed=0:00:02.22    \nframe=    9 fps=3.2 q=50.0 size=       0KiB time=00:00:00.06 bitrate=  57.7kbits/s speed=0.0237x elapsed=0:00:02.81    \nframe=   12 fps=3.4 q=50.0 size=       0KiB time=00:00:00.09 bitrate=  42.0kbits/s speed=0.0261x elapsed=0:00:03.50    \nframe=   15 fps=3.6 q=50.0 size=       0KiB time=00:00:00.11 bitrate=  33.0kbits/s speed=0.028x elapsed=0:00:04.16    \nframe=   17 fps=3.5 q=50.0 size=       0KiB time=00:00:00.14 bitrate=  27.2kbits/s speed=0.0288x elapsed=0:00:04.92    \nframe=   20 fps=3.6 q=50.0 size=       0KiB time=00:00:00.16 bitrate=  23.1kbits/s speed=0.0299x elapsed=0:00:05.57    \nframe=   23 fps=3.8 q=52.0 size=       0KiB time=00:00:00.19 bitrate=  20.1kbits/s speed=0.0314x elapsed=0:00:06.09    \nframe=   26 fps=3.9 q=52.0 size=       0KiB time=00:00:00.21 bitrate=  17.8kbits/s speed=0.0326x elapsed=0:00:06.64    \nframe=   29 fps=4.0 q=52.0 size=       0KiB time=00:00:00.24 bitrate=  15.9kbits/s speed=0.0335x elapsed=0:00:07.21    \nframe=   31 fps=4.0 q=41.0 size=       0KiB time=00:00:00.25 bitrate=  14.9kbits/s speed=0.033x elapsed=0:00:07.83    \nframe=   34 fps=4.0 q=52.0 size=       0KiB time=00:00:00.28 bitrate=  13.6kbits/s speed=0.0337x elapsed=0:00:08.39    \nframe=   37 fps=4.1 q=50.0 size=       0KiB time=00:00:00.30 bitrate=  12.5kbits/s speed=0.0346x elapsed=0:00:08.92    \nframe=   41 fps=4.3 q=50.0 size=       0KiB time=00:00:00.33 bitrate=  11.5kbits/s speed=0.035x elapsed=0:00:09.52    \nframe=   44 fps=4.3 q=50.0 size=       0KiB time=00:00:00.35 bitrate=  10.7kbits/s speed=0.0351x elapsed=0:00:10.20    \nframe=   46 fps=4.2 q=36.0 size=       0KiB time=00:00:00.37 bitrate=  10.3kbits/s speed=0.0346x elapsed=0:00:10.85    \nframe=   49 fps=4.3 q=51.0 size=       0KiB time=00:00:00.40 bitrate=   9.4kbits/s speed=0.0355x elapsed=0:00:11.50    \nframe=   53 fps=4.4 q=52.0 size=       0KiB time=00:00:00.43 bitrate=   8.9kbits/s speed=0.036x elapsed=0:00:12.04    \nframe=   57 fps=4.5 q=51.0 size=       0KiB time=00:00:00.46 bitrate=   8.2kbits/s speed=0.0368x elapsed=0:00:12.67    \nframe=   60 fps=4.5 q=51.0 size=       0KiB time=00:00:00.50 bitrate=   7.7kbits/s speed=0.0375x elapsed=0:00:13.32    \nframe=   64 fps=4.5 q=47.0 size=       0KiB time=00:00:00.52 bitrate=   7.3kbits/s speed=0.0373x elapsed=0:00:14.07    \nframe=   68 fps=4.6 q=47.0 size=       0KiB time=00:00:00.55 bitrate=   6.9kbits/s speed=0.0379x elapsed=0:00:14.72    \nframe=   71 fps=4.6 q=48.0 size=       0KiB time=00:00:00.58 bitrate=   6.6kbits/s speed=0.0379x elapsed=0:00:15.37    \nframe=   74 fps=4.6 q=48.0 size=       0KiB time=00:00:00.61 bitrate=   6.2kbits/s speed=0.0385x elapsed=0:00:16.02    \nframe=   76 fps=4.6 q=33.0 size=       0KiB time=00:00:00.63 bitrate=   6.1kbits/s speed=0.0381x elapsed=0:00:16.63    \nframe=   79 fps=4.6 q=49.0 size=       0KiB time=00:00:00.65 bitrate=   5.8kbits/s speed=0.0381x elapsed=0:00:17.27    \nframe=   83 fps=4.7 q=50.0 size=       0KiB time=00:00:00.68 bitrate=   5.6kbits/s speed=0.0383x elapsed=0:00:17.83    \nframe=   86 fps=4.6 q=50.0 size=       0KiB time=00:00:00.71 bitrate=   5.4kbits/s speed=0.0386x elapsed=0:00:18.55    \nframe=   89 fps=4.6 q=50.0 size=       0KiB time=00:00:00.73 bitrate=   5.2kbits/s speed=0.0381x elapsed=0:00:19.26    \nframe=   90 fps=4.5 q=50.0 size=       0KiB time=00:00:00.75 bitrate=   5.1kbits/s speed=0.0378x elapsed=0:00:19.85    \nframe=   93 fps=4.5 q=48.0 size=       0KiB time=00:00:00.77 bitrate=   5.0kbits/s speed=0.0377x elapsed=0:00:20.56    \nframe=   95 fps=4.5 q=48.0 size=       0KiB time=00:00:00.79 bitrate=   4.9kbits/s speed=0.0372x elapsed=0:00:21.25    \nframe=   97 fps=4.5 q=49.0 size=       0KiB time=00:00:00.80 bitrate=   4.8kbits/s speed=0.0371x elapsed=0:00:21.78    \nframe=  100 fps=4.5 q=50.0 size=       0KiB time=00:00:00.83 bitrate=   4.6kbits/s speed=0.0373x elapsed=0:00:22.33    \nframe=  103 fps=4.5 q=50.0 size=       0KiB time=00:00:00.85 bitrate=   4.5kbits/s speed=0.0374x elapsed=0:00:22.96    \nframe=  105 fps=4.5 q=51.0 size=       0KiB time=00:00:00.87 bitrate=   4.4kbits/s speed=0.0371x elapsed=0:00:23.57    \nframe=  107 fps=4.4 q=51.0 size=       0KiB time=00:00:00.89 bitrate=   4.3kbits/s speed=0.0369x elapsed=0:00:24.17    \nframe=  108 fps=4.4 q=50.0 size=       0KiB time=00:00:00.90 bitrate=   4.3kbits/s speed=0.0364x elapsed=0:00:24.73    \nframe=  110 fps=4.3 q=51.0 size=       0KiB time=00:00:00.91 bitrate=   4.2kbits/s speed=0.036x elapsed=0:00:25.44    \nframe=  112 fps=4.3 q=51.0 size=       0KiB time=00:00:00.93 bitrate=   4.1kbits/s speed=0.0359x elapsed=0:00:25.97    \nframe=  114 fps=4.3 q=51.0 size=       0KiB time=00:00:00.95 bitrate=   4.1kbits/s speed=0.0359x elapsed=0:00:26.48    \nframe=  115 fps=4.3 q=51.0 size=       0KiB time=00:00:00.95 bitrate=   4.0kbits/s speed=0.0355x elapsed=0:00:27.00    \nframe=  116 fps=4.2 q=51.0 size=       0KiB time=00:00:00.96 bitrate=   4.0kbits/s speed=0.0351x elapsed=0:00:27.51    \nframe=  119 fps=4.2 q=51.0 size=       0KiB time=00:00:00.99 bitrate=   3.9kbits/s speed=0.0354x elapsed=0:00:28.02    \nframe=  122 fps=4.3 q=51.0 size=       0KiB time=00:00:01.01 bitrate=   3.8kbits/s speed=0.0356x elapsed=0:00:28.54    \nframe=  125 fps=4.3 q=51.0 size=       0KiB time=00:00:01.04 bitrate=   3.7kbits/s speed=0.0358x elapsed=0:00:29.06    \nframe=  128 fps=4.3 q=51.0 size=       0KiB time=00:00:01.06 bitrate=   3.6kbits/s speed=0.0361x elapsed=0:00:29.57    \nframe=  128 fps=4.3 q=51.0 size=       0KiB time=00:00:01.06 bitrate=   3.6kbits/s speed=0.0355x elapsed=0:00:30.08    \nframe=  131 fps=4.3 q=49.0 size=     256KiB time=00:00:01.09 bitrate=1921.1kbits/s speed=0.0357x elapsed=0:00:30.60    \nframe=  134 fps=4.3 q=49.0 size=     256KiB time=00:00:01.11 bitrate=1878.0kbits/s speed=0.0359x elapsed=0:00:31.11    \nframe=  137 fps=4.3 q=50.0 size=     256KiB time=00:00:01.14 bitrate=1836.9kbits/s speed=0.0361x elapsed=0:00:31.63    \nframe=  140 fps=4.4 q=49.0 size=     256KiB time=00:00:01.16 bitrate=1797.6kbits/s speed=0.0363x elapsed=0:00:32.15    \nframe=  143 fps=4.4 q=50.0 size=     256KiB time=00:00:01.19 bitrate=1759.8kbits/s speed=0.0365x elapsed=0:00:32.66    \nframe=  145 fps=4.4 q=51.0 size=     256KiB time=00:00:01.20 bitrate=1735.6kbits/s speed=0.0364x elapsed=0:00:33.17    \nframe=  148 fps=4.4 q=48.0 size=     256KiB time=00:00:01.23 bitrate=1700.4kbits/s speed=0.0366x elapsed=0:00:33.69    \nframe=  151 fps=4.4 q=47.0 size=     256KiB time=00:00:01.25 bitrate=1666.6kbits/s speed=0.0368x elapsed=0:00:34.21    \n[in#0/yuv4mpegpipe @ 0000024ae4825040] Error during demuxing: Immediate exit requested\n[out#0/webm @ 0000024ae4829b80] Error writing trailer: Immediate exit requested\n[out#0/webm @ 0000024ae4829b80] Error closing file: Immediate exit requested\n[out#0/webm @ 0000024ae4829b80] video:478KiB audio:0KiB subtitle:0KiB other streams:0KiB global headers:0KiB muxing overhead: unknown\nframe=  206 fps=4.7 q=50.0 Lsize=     256KiB time=00:00:01.71 bitrate=1221.6kbits/s speed=0.0392x elapsed=0:00:43.78    \nExiting normally, received signal 2.\n",
  "seconds": 45.074774980545044
}